Coordinates
version=1
nRows=29
nColumns=24
inDegrees=yes

Units are S.I. units (second, meters, Newtons, ...)
Angles are in degrees.

endheader
time	pelvis_tilt	pelvis_list	pelvis_rotation	pelvis_tx	pelvis_ty	pelvis_tz	hip_flexion_r	hip_adduction_r	hip_rotation_r	knee_angle_r	ankle_angle_r	subtalar_angle_r	mtp_angle_r	hip_flexion_l	hip_adduction_l	hip_rotation_l	knee_angle_l	ankle_angle_l	subtalar_angle_l	mtp_angle_l	lumbar_extension	lumbar_bending	lumbar_rotation
      4.03500000	     12.90730773	     -0.05504211	      7.52247591	     -0.43542519	      0.92473035	     -0.30498265	      6.07436123	      0.98631938	     -0.89995595	     -5.46171940	     12.66808228	     -2.82228992	      0.00000000	    -26.17578732	     -1.64683015	      0.50769786	    -17.92854921	     23.25590115	     12.09345201	      0.00000000	    -30.90380027	      3.60825314	    -12.43275661
      4.04000000	     12.91495969	     -0.49294193	      7.60011756	     -0.42805849	      0.92426196	     -0.30450177	      6.06176000	      1.51635405	     -1.00316352	     -5.76223259	     12.61126094	     -2.89541063	      0.00000000	    -26.08184115	     -2.27361575	      0.14964001	    -19.05176739	     23.07855905	     12.70143492	      0.00000000	    -30.76951823	      4.06364024	    -12.21013672
      4.04500000	     12.95567476	     -0.96193697	      7.70414774	     -0.42059001	      0.92387970	     -0.30395249	      6.00735823	      2.09853774	     -1.09094263	     -6.13372553	     12.56949546	     -3.09891091	      0.00000000	    -26.00040912	     -2.96415981	     -0.22319613	    -20.20526497	     22.79598330	     13.34971305	      0.00000000	    -30.64775595	      4.54832999	    -12.04408298
      4.05000000	     13.02839358	     -1.46513010	      7.80652391	     -0.41301155	      0.92356522	     -0.30337049	      5.91199278	      2.73114929	     -1.15976401	     -6.56528687	     12.56030081	     -3.34624560	      0.00000000	    -25.93495934	     -3.70088064	     -0.61178412	    -21.38573611	     22.41788665	     14.01463006	      0.00000000	    -30.53618573	      5.06734284	    -11.88329947
      4.05500000	     13.10146196	     -1.98341348	      7.91774960	     -0.40547700	      0.92327384	     -0.30279395	      5.82064852	      3.38121622	     -1.25845962	     -7.05677737	     12.56391383	     -3.56514831	      0.00000000	    -25.81551877	     -4.45696188	     -0.97796938	    -22.65477543	     22.00296884	     14.61308645	      0.00000000	    -30.43474614	      5.60378932	    -11.68279739
      4.06000000	     13.17205300	     -2.52195247	      8.03885249	     -0.39791821	      0.92300475	     -0.30219157	      5.73136414	      4.05813051	     -1.37709073	     -7.59832321	     12.58211972	     -3.79177828	      0.00000000	    -25.65247324	     -5.24606150	     -1.34458759	    -23.98532264	     21.52621891	     15.20118524	      0.00000000	    -30.32555771	      6.16183070	    -11.48061190
      4.06500000	     13.23363070	     -3.07344883	      8.16482393	     -0.39032976	      0.92275506	     -0.30157692	      5.64489324	      4.75212609	     -1.50113132	     -8.17426319	     12.62310385	     -4.01534597	      0.00000000	    -25.43998524	     -6.05278178	     -1.68719718	    -25.37216983	     20.97551617	     15.74962534	      0.00000000	    -30.19975046	      6.73154232	    -11.27867992
      4.07000000	     13.28681113	     -3.63151695	      8.29715817	     -0.38272529	      0.92252113	     -0.30095867	      5.56016875	      5.45492535	     -1.63032949	     -8.77648696	     12.68389252	     -4.23660150	      0.00000000	    -25.17723724	     -6.87180543	     -2.00519696	    -26.81435522	     20.35268164	     16.25009411	      0.00000000	    -30.05726597	      7.30821469	    -11.07928939
      4.07500000	     13.32817034	     -4.19398547	      8.43514806	     -0.37510923	      0.92229993	     -0.30033696	      5.47783641	      6.16383741	     -1.76160847	     -9.39230053	     12.76447222	     -4.45173213	      0.00000000	    -24.85958526	     -7.69814941	     -2.28821234	    -28.30883410	     19.65770963	     16.69140014	      0.00000000	    -29.89811793	      7.88952842	    -10.88306052
      4.08000000	     13.35716860	     -4.75559116	      8.58519391	     -0.36748554	      0.92209042	     -0.29971452	      5.39687460	      6.87321746	     -1.89813411	    -10.01378029	     12.86193433	     -4.67515034	      0.00000000	    -24.48447453	     -8.53139556	     -2.54015102	    -29.85185028	     18.89651205	     17.07486106	      0.00000000	    -29.71882297	      8.47011436	    -10.70685776
      4.08500000	     13.35637940	     -5.30022222	      8.75547507	     -0.35989434	      0.92188374	     -0.29906137	      5.33607188	      7.56530396	     -2.05215513	    -10.63294391	     12.96747327	     -4.92263402	      0.00000000	    -24.02251692	     -9.35954959	     -2.73723328	    -31.45081513	     18.06920401	     17.40836031	      0.00000000	    -29.51154706	      9.02687307	    -10.58151714
      4.09000000	     13.33955227	     -5.84121718	      8.92956870	     -0.35230042	      0.92168375	     -0.29845915	      5.27548048	      8.24853934	     -2.20254149	    -11.23902255	     13.10536905	     -5.12974712	      0.00000000	    -23.50077152	    -10.17396846	     -2.87247975	    -33.08685108	     17.18279712	     17.63290238	      0.00000000	    -29.27941766	      9.58869828	    -10.45179977
      4.09500000	     13.31316113	     -6.37483676	      9.11123690	     -0.34472090	      0.92149736	     -0.29788420	      5.20815510	      8.92254639	     -2.35424117	    -11.82445490	     13.26922533	     -5.32222532	      0.00000000	    -22.92438643	    -10.97719430	     -2.95904055	    -34.75420980	     16.24688539	     17.75265729	      0.00000000	    -29.03580797	     10.14822280	    -10.33615813
      4.10000000	     13.26000193	     -6.88767587	      9.31782466	     -0.33717861	      0.92131983	     -0.29734134	      5.14999278	      9.57013389	     -2.51482794	    -12.37904792	     13.44656347	     -5.51027922	      0.00000000	    -22.26382346	    -11.75980905	     -2.96389558	    -36.45669162	     15.26722771	     17.78736120	      0.00000000	    -28.76213563	     10.69468887	    -10.26009925
      4.10500000	     13.19893487	     -7.38328886	      9.53065192	     -0.32966397	      0.92116194	     -0.29683844	      5.07990697	     10.19715419	     -2.67538174	    -12.90051532	     13.65165467	     -5.67556896	      0.00000000	    -21.55095385	    -12.51384129	     -2.91029484	    -38.17718304	     14.25586234	     17.69903149	      0.00000000	    -28.48103408	     11.22859219	    -10.20131775
      4.11000000	     13.13963013	     -7.85704956	      9.74997343	     -0.32219297	      0.92103642	     -0.29636421	      4.98532137	     10.80177381	     -2.83037956	    -13.38030150	     13.88514286	     -5.82612990	      0.00000000	    -20.79676462	    -13.23681066	     -2.80828470	    -39.90816923	     13.22598217	     17.49352017	      0.00000000	    -28.20736830	     11.74588474	    -10.16385200
      4.11500000	     13.06595148	     -8.30102292	      9.99114885	     -0.31477517	      0.92093696	     -0.29595265	      4.88412220	     11.37018888	     -2.98997782	    -13.81776978	     14.13694381	     -5.95624960	      0.00000000	    -19.97671564	    -13.91659833	     -2.61689749	    -41.64867306	     12.18520027	     17.18243882	      0.00000000	    -27.91831387	     12.23962797	    -10.15807521
      4.12000000	     13.02093157	     -8.72584871	     10.21813399	     -0.30738307	      0.92089460	     -0.29554669	      4.72654681	     11.92642125	     -3.13354985	    -14.20829963	     14.41416917	     -6.07866336	      0.00000000	    -19.16332414	    -14.56407320	     -2.42865341	    -43.37066959	     11.15905205	     16.75216063	      0.00000000	    -27.67030503	     12.71266142	    -10.15691962
      4.12500000	     12.96340148	     -9.11668505	     10.47473773	     -0.30004890	      0.92088193	     -0.29522880	      4.55481134	     12.44148251	     -3.27380079	    -14.54044334	     14.70732257	     -6.17359029	      0.00000000	    -18.28536782	    -15.15791979	     -2.13558046	    -45.09263034	     10.15430018	     16.21679411	      0.00000000	    -27.40841187	     13.16967092	    -10.18321493
      4.13000000	     12.92253760	     -9.47805202	     10.72463421	     -0.29276121	      0.92092470	     -0.29491945	      4.34103821	     12.93135852	     -3.40572023	    -14.82792178	     15.02289329	     -6.25856159	      0.00000000	    -17.39874098	    -15.70512975	     -1.82566969	    -46.78856907	      9.18958745	     15.58240494	      0.00000000	    -27.17662864	     13.58778000	    -10.22074036
      4.13500000	     12.92437026	     -9.80915154	     10.94898975	     -0.28547858	      0.92105252	     -0.29461416	      4.04647724	     13.40283649	     -3.49202587	    -15.05862156	     15.36041123	     -6.34332833	      0.00000000	    -16.55331667	    -16.20132698	     -1.53292045	    -48.43616395	      8.27880357	     14.83507055	      0.00000000	    -26.99498767	     13.97050601	    -10.25333529
      4.14000000	     12.89272179	    -10.09934328	     11.22738053	     -0.27833445	      0.92119547	     -0.29444030	      3.76738316	     13.81633241	     -3.61924585	    -15.22864974	     15.69616820	     -6.38356082	      0.00000000	    -15.60131023	    -16.63203163	     -1.10048132	    -50.08961072	      7.43527927	     14.04562878	      0.00000000	    -26.79762816	     14.34484094	    -10.30970989
      4.14500000	     12.92690156	    -10.35826508	     11.43476163	     -0.27109128	      0.92146379	     -0.29420147	      3.36735793	     14.22377672	     -3.65281778	    -15.33888404	     16.04985478	     -6.45888545	      0.00000000	    -14.76215297	    -17.00720867	     -0.77271814	    -51.64854924	      6.64809379	     13.11853687	      0.00000000	    -26.66819729	     14.65492966	    -10.35541478
      4.15000000	     12.92027739	    -10.57469061	     11.72598392	     -0.26408587	      0.92171898	     -0.29412408	      3.01314091	     14.56534124	     -3.77505232	    -15.41367352	     16.39198366	     -6.46574308	      0.00000000	    -13.78475220	    -17.31449894	     -0.26428833	    -53.23008663	      5.98582480	     12.20110295	      0.00000000	    -26.52455575	     14.96205404	    -10.43163394
      4.15500000	     12.75540003	    -10.70308452	     11.95924728	     -0.25719536	      0.92200454	     -0.29402108	      2.79991254	     14.78311451	     -3.85913509	    -15.47359024	     16.72790813	     -6.48299462	      0.00000000	    -12.62601650	    -17.45156020	      0.27436859	    -54.76347354	      5.34463582	     11.14839848	      0.00000000	    -26.55373663	     15.06365156	    -10.58213384
      4.16000000	     12.81564717	    -10.86258754	     12.15235458	     -0.24997136	      0.92245176	     -0.29388396	      2.26503124	     15.09956172	     -3.82427012	    -15.40138234	     17.08153766	     -6.54150298	      0.00000000	    -11.78732171	    -17.65216754	      0.64884360	    -56.16425157	      4.81438298	     10.08902073	      0.00000000	    -26.33620123	     15.25526298	    -10.66531081
      4.16500000	     12.87485708	    -10.96200220	     12.37025914	     -0.24296639	      0.92293388	     -0.29381618	      1.72613338	     15.34638749	     -3.82796331	    -15.30873366	     17.43040983	     -6.54892652	      0.00000000	    -10.90420418	    -17.76320635	      1.09319183	    -57.54432930	      4.42070772	      9.01154565	      0.00000000	    -26.16942266	     15.39831230	    -10.75911031
      4.17000000	     12.91301121	    -11.02297863	     12.61962026	     -0.23609888	      0.92341596	     -0.29387274	      1.20189647	     15.54144298	     -3.87962511	    -15.18942823	     17.77230038	     -6.53020493	      0.00000000	     -9.96031523	    -17.79331258	      1.62524399	    -58.89908069	      4.17030124	      7.93117084	      0.00000000	    -26.00879884	     15.52373809	    -10.88136992
      4.17500000	     12.96524408	    -11.05424629	     12.81671397	     -0.22915259	      0.92398772	     -0.29388383	      0.61096638	     15.71584327	     -3.86777657	    -15.00119827	     18.10144760	     -6.52177709	      0.00000000	     -9.06803460	    -17.77207394	      2.08234111	    -60.15769976	      3.97111629	      6.83963864	      0.00000000	    -25.87308144	     15.59606636	    -10.94462722
